# xmcd
#
# Track frame offsets:
# 150
# 10848
# 25077
# 45359
# 59117
# 79384
# 101729
# 116676
# 128367
# 142244
# 158419
# 172825
# 186813
# 197511
# 211841
# 225382
# 242513
# 263048
#
# Disc length: 3657 seconds
#
# Revision: 0
# Processed by: cddbd v1.4PL0 Copyright (c) Steve Scherf et al.
# Submitted via: Audion 3.0.2 (http://www.panic.com/audion/)
#
DISCID=e30e4712
DTITLE=Tomlab and Audio Dregs - For Friends
DYEAR=1900
DGENRE=
TTITLE0=Alejandra and Aeron-Shanghai Harmonica
TTITLE1=Carpet Musics-Air
TTITLE2=Inkblot-Everyday Just For a Moment
TTITLE3=Ekiti Son-Gemini Disco
TTITLE4=Grace Period-Best of Boston
TTITLE5=Supersprite-Circuilar
TTITLE6=:dz-I don't understand.  Do I say the right words?
TTITLE7=E*ROCK-Plastic Guitar
TTITLE8=F.S. Blumm and Bikini Krakor-Squinting Squirrel
TTITLE9=Lineland-Antique Woman
TTITLE10=Adlib-Hoffnung
TTITLE11=E*VAX-How We Do
TTITLE12=Casiotone for the Painfully Alone-Die Zugfahrt, die unsere Beziehung kaputtgemacht kat
TTITLE13=Zammuto-Gallery in Houston
TTITLE14=Dim Dim-Spoiled Scotty
TTITLE15=Juergen De Blonde-Home is Where the Heart is
TTITLE16=Jon Sheffield-Between Lagoons
TTITLE17=Ear Weego-Ramlib
EXTD=
EXTT0=
EXTT1=
EXTT2=
EXTT3=
EXTT4=
EXTT5=
EXTT6=
EXTT7=
EXTT8=
EXTT9=
EXTT10=
EXTT11=
EXTT12=
EXTT13=
EXTT14=
EXTT15=
EXTT16=
EXTT17=
PLAYORDER=
